<?xml version="1.0" encoding="UTF-8"?>
<svg id="Capa_1" data-name="Capa 1" xmlns="http://www.w3.org/2000/svg" xmlns:xlink="http://www.w3.org/1999/xlink" viewBox="0 0 100 100">
  <defs>
    <style>
      .cls-1 {
        clip-path: url(#clippath);
      }

      .cls-2 {
        fill: none;
      }

      .cls-3 {
        fill: #5b696f;
      }
    </style>
    <clipPath id="clippath">
      <rect class="cls-2" x="6.25" width="87.5" height="100"/>
    </clipPath>
  </defs>
  <g class="cls-1">
    <path class="cls-3" d="M16.34,.92c1.83-.63,3.83-.71,5.76-.72,20.87,.03,41.72-.02,62.59,.02,3.8-.22,7.39,2.2,8.47,5.34,.45,1.83,.28,3.72,.31,5.58-.04,17.46,0,34.92-.02,52.38,.27,4.12-4.05,7.9-8.73,7.66-20.87,0-41.75,.02-62.61,0-2.52-.05-5.34,.23-7.16,1.95-2.52,2.03-2.23,5.42-1.67,8.12,1.11,2.87,4.6,4.04,7.78,4.23,3.1,0,3.11,4.39,.11,4.62-6.04,.24-11.56-3.73-13.36-8.68-1.55-3.17-.44-6.63-.51-9.93-.02-19.83-.04-39.65,0-59.47-.02-4.89,3.93-9.37,9.03-11.09Z"/>
    <path class="cls-3" d="M28.88,78.08c0-2.6,4.6-2.98,5.23-.47,.27,5.24,.08,10.51,.13,15.76,3.13-1.22,6-3.29,9.56-3.32,1.96,1.44,4.3,2.36,6.6,3.29,.07-5.23-.21-10.48,.1-15.7,.46-2.59,5.33-2.16,5.2,.49,.17,5.76,0,11.52,.08,17.28,0,1.45,.17,3.53-1.86,4.05-5.16,.32-9.47-6.05-14.62-3.07-2.4,1.01-4.65,2.32-7.2,3.06-1.69,.55-3.43-.93-3.24-2.42-.05-6.32-.04-12.64,0-18.95Z"/>
    <path class="cls-3" d="M61.82,86.2l.57-.6c8.43-.49,16.92-.16,25.36-.2,3.26-.51,4.19,4.05,1.03,4.59-8.4,.19-16.83,.18-25.24,.03-2.11,.07-3.17-2.56-1.72-3.81Z"/>
  </g>
</svg>