<?xml version="1.0" encoding="UTF-8"?>
<svg id="Capa_1" data-name="Capa 1" xmlns="http://www.w3.org/2000/svg" xmlns:xlink="http://www.w3.org/1999/xlink" viewBox="0 0 100 100">
  <defs>
    <style>
      .cls-1 {
        clip-path: url(#clippath);
      }

      .cls-2 {
        fill: none;
      }

      .cls-3 {
        fill: #5b696f;
      }
    </style>
    <clipPath id="clippath">
      <rect class="cls-2" x="3.75" width="92.5" height="100"/>
    </clipPath>
  </defs>
  <g class="cls-1">
    <path class="cls-3" d="M77.88,82.48v9.23h7.84v-9.23h-7.84Zm-64.22,0v9.23h7.83v-9.23h-7.83Zm62.95-2.54h10.38c.7,0,1.27,.57,1.27,1.27v10.5h1.27c.46,0,.89,.23,1.12,.63,.23,.4,.23,.89,0,1.28-.23,.4-.66,.64-1.12,.63h-15.46c-.46,0-.89-.23-1.12-.63-.23-.4-.23-.89,0-1.28,.23-.4,.66-.64,1.12-.63h1.27v-10.5c0-.7,.57-1.27,1.27-1.27Zm-64.22,0h10.38c.7,0,1.27,.57,1.27,1.27v10.5h1.27c.46,0,.89,.23,1.12,.63,.23,.4,.23,.89,0,1.28-.23,.4-.66,.64-1.12,.63H9.84c-.46,0-.89-.23-1.12-.63-.23-.4-.23-.89,0-1.28,.23-.4,.66-.64,1.12-.63h1.27v-10.5c0-.7,.57-1.27,1.27-1.27Zm38.89-11.82v31.88h7.61v-31.88h-7.61Zm-10.16,0v31.88h7.61v-31.88h-7.61Zm36.77-7.7v9.23h7.84v-9.23h-7.84Zm-64.22,0v9.23h7.83v-9.23h-7.83Zm62.95-2.54h10.38c.7,0,1.27,.57,1.27,1.27v10.5h1.27c.46,0,.89,.23,1.12,.63,.23,.4,.23,.89,0,1.28-.23,.4-.66,.64-1.12,.63h-15.46c-.46,0-.89-.23-1.12-.63-.23-.4-.23-.88,0-1.28,.23-.4,.66-.64,1.12-.63h1.27v-10.5c0-.7,.57-1.27,1.27-1.27Zm-64.22,0h10.38c.7,0,1.27,.57,1.27,1.27v10.5h1.27c.68,0,1.25,.52,1.29,1.21,.03,.68-.48,1.27-1.16,1.33-.04,0-.08,0-.13,0H9.84c-.46,0-.89-.23-1.12-.63-.23-.4-.23-.88,0-1.28,.23-.4,.66-.64,1.12-.63h1.27v-10.5c0-.7,.57-1.27,1.27-1.27Zm45.22-5.21c-.29,0-.53,.06-.72,.18-.2,.12-.35,.29-.46,.5-.11,.22-.16,.46-.16,.75s.06,.54,.16,.75c.11,.21,.26,.37,.46,.5,.2,.12,.43,.18,.72,.18s.53-.06,.72-.18c.2-.12,.35-.28,.46-.5,.11-.22,.16-.46,.16-.75s-.06-.54-.16-.75c-.11-.21-.25-.38-.46-.5-.2-.12-.43-.18-.72-.18Zm-5.33,0c-.29,0-.53,.06-.72,.18-.2,.12-.34,.29-.45,.5-.11,.22-.17,.46-.17,.75s.06,.54,.17,.75c.11,.21,.25,.37,.45,.5,.2,.12,.43,.18,.72,.18s.53-.06,.73-.18c.2-.12,.34-.28,.45-.5,.11-.22,.17-.46,.17-.75s-.06-.54-.17-.75c-.11-.21-.25-.38-.45-.5-.2-.12-.44-.18-.73-.18Zm-6.64-1.11c.15,0,.31,.07,.42,.18,.11,.1,.18,.26,.18,.41v1.39h1.8v-1.39c0-.15,.07-.31,.17-.41,.1-.1,.26-.18,.42-.18s.31,.07,.42,.18c.11,.1,.18,.26,.18,.41v3.91c0,.15-.07,.31-.18,.42-.11,.11-.26,.17-.42,.17s-.31-.07-.42-.17c-.11-.11-.17-.26-.17-.42v-1.38h-1.8v1.38c0,.15-.07,.31-.18,.42-.1,.1-.26,.17-.42,.17s-.31-.07-.41-.17c-.11-.11-.17-.26-.17-.42v-3.91c0-.15,.07-.31,.17-.41,.1-.1,.26-.18,.41-.18Zm15.63,0c.15,0,.31,.07,.42,.18,.11,.1,.18,.26,.18,.41v3.29h1.77c.14,0,.31,.06,.42,.17,.11,.11,.18,.26,.18,.42s-.07,.31-.18,.42c-.1,.1-.26,.17-.42,.17h-2.25c-.19,0-.36-.08-.49-.2,0,0,0,0,0,0-.12-.13-.2-.31-.2-.49v-3.76c0-.15,.07-.31,.17-.41,.1-.1,.26-.18,.42-.18h0Zm-18.54-.04h0c.31,0,.6,.04,.85,.12,.25,.08,.5,.18,.73,.32h0c.17,.1,.29,.32,.29,.51,0,.13-.06,.28-.14,.37,0,0-.01,0-.02,0-.1,.1-.25,.16-.4,.16-.09,0-.17-.02-.25-.06,0,0,0,0,0,0-.17-.09-.33-.15-.49-.19-.15-.04-.32-.07-.53-.07-.32,0-.57,.07-.78,.19h0c-.21,.12-.34,.27-.45,.49-.1,.21-.16,.46-.16,.75s.06,.54,.16,.75c.11,.21,.25,.36,.46,.49,.2,.11,.46,.18,.78,.18,.21,0,.39-.02,.53-.06,.15-.04,.31-.11,.49-.2,0,0,0,0,0,0,.1-.05,.18-.05,.25-.05,.13,0,.29,.05,.4,.16,.11,.11,.16,.26,.16,.39,0,.19-.12,.4-.29,.5-.24,.14-.48,.24-.73,.32h0c-.26,.08-.54,.11-.85,.11-.47,0-.9-.1-1.29-.31h0c-.38-.22-.69-.52-.91-.91,0,0,0,0,0,0-.22-.4-.32-.85-.32-1.35s.11-.96,.33-1.35h0c.22-.4,.52-.71,.91-.92,.39-.21,.82-.31,1.29-.31Zm-4.64,0h0c.49,0,.95,.08,1.36,.23,.21,.07,.38,.32,.38,.54,0,.13-.05,.27-.14,.38-.1,.12-.26,.19-.42,.19-.11,0-.15-.03-.2-.04-.3-.1-.6-.15-.92-.15-.3,0-.51,.06-.66,.15-.13,.08-.17,.14-.17,.27,0,.08,.01,.11,.05,.15,.07,.06,.16,.12,.27,.16,.13,.04,.33,.09,.58,.15h0c.34,.08,.62,.16,.84,.25,.25,.1,.46,.26,.64,.46,.2,.23,.3,.54,.3,.88,0,.29-.09,.58-.26,.82h0c-.17,.24-.41,.42-.69,.54-.29,.13-.62,.18-.97,.18-.57,0-1.13-.1-1.64-.32-.1-.04-.19-.12-.24-.2,0,0,0,0,0,0-.07-.1-.1-.22-.1-.33,0-.13,.05-.28,.15-.39,.11-.12,.27-.17,.41-.17,.07,0,.16,0,.25,.04,.35,.16,.72,.24,1.12,.24,.34,0,.56-.06,.66-.13,.11-.07,.14-.13,.14-.3,0-.05,0-.06-.04-.09,0,0,0,0,0,0-.05-.05-.13-.09-.24-.13,0,0,0,0,0,0-.13-.05-.31-.1-.57-.17-.35-.09-.63-.18-.86-.26,0,0,0,0,0,0-.25-.1-.47-.25-.65-.45-.21-.23-.3-.53-.3-.86,0-.29,.08-.58,.23-.82,.16-.25,.4-.45,.68-.58,.3-.14,.64-.21,1.02-.21Zm19.53,0c.49,0,.94,.11,1.31,.34,.38,.22,.68,.54,.89,.93h0c.21,.39,.31,.84,.32,1.31h0c0,.49-.11,.93-.32,1.32h0c-.21,.39-.51,.71-.88,.93-.38,.23-.83,.33-1.32,.33s-.93-.11-1.32-.33c-.38-.22-.68-.54-.89-.93-.21-.39-.31-.82-.32-1.31h0c0-.49,.11-.93,.32-1.32,.21-.39,.51-.7,.89-.93,.38-.22,.83-.34,1.32-.34h0Zm-5.33,0c.49,0,.94,.12,1.31,.34,.38,.22,.68,.54,.89,.93h0c.21,.39,.32,.83,.33,1.31h0c0,.49-.12,.93-.33,1.32h0c-.21,.39-.51,.71-.88,.93-.38,.23-.83,.33-1.32,.33s-.93-.11-1.31-.33c-.38-.22-.68-.54-.89-.93-.21-.39-.31-.82-.32-1.31h0c0-.49,.12-.93,.32-1.32,.21-.39,.51-.7,.89-.93,.38-.22,.82-.34,1.31-.34h0Zm17.04-.3v48.77h24.25V51.22h-24.25Zm-62.88,0v48.77H30.68V51.22H6.43Zm43.57-14.05l-16.8,9.08c.02,.08,.03,.17,.03,.25v53.48h5.34v-31.88h-1.63c-.46,0-.89-.23-1.12-.63-.23-.4-.23-.89,0-1.28,.23-.4,.66-.64,1.12-.63h12.85c.06-.01,.12-.02,.18-.02,.08,0,.15,0,.23,.02h12.85c.46,0,.89,.23,1.12,.63,.23,.4,.23,.89,0,1.28-.23,.4-.66,.64-1.12,.63h-1.63v31.88h5.34V46.51c0-.08,0-.17,.03-.25l-16.8-9.09Zm-31.08-7.15L3.78,48.68H30.68v-.9h-.62c-.58,0-1.09-.4-1.23-.96-.14-.56,.11-1.15,.63-1.43l19.94-10.78c.38-.2,.83-.2,1.21,0l19.93,10.78c.51,.28,.77,.87,.63,1.43-.14,.56-.65,.96-1.23,.96h-.62v.9h26.91l-15.14-18.66H18.91ZM49.98,8.85c.34,0,.68,.13,.92,.37,.24,.24,.38,.57,.37,.92v3.55l2.51,2.51c.33,.32,.46,.79,.34,1.23-.12,.44-.46,.79-.91,.9-.44,.12-.91-.01-1.23-.34l-2.75-2.75c-.17-.13-.31-.31-.4-.51,0,0,0,0,0,0,0-.01-.01-.03-.02-.05-.08-.21-.11-.43-.08-.65v-3.9c-.01-.7,.55-1.28,1.25-1.29Zm.02-1.9c-4.03,0-7.27,3.24-7.27,7.27s3.24,7.27,7.27,7.27,7.27-3.24,7.27-7.27-3.24-7.27-7.27-7.27Zm0-2.54c5.4,0,9.81,4.41,9.81,9.81s-4.41,9.81-9.81,9.81-9.81-4.41-9.81-9.81,4.41-9.81,9.81-9.81ZM50,0l-14.08,7.87V27.48h28.17V7.87L50,0Z"/>
  </g>
</svg>