<?xml version="1.0" encoding="UTF-8"?>
<svg id="Capa_1" data-name="Capa 1" xmlns="http://www.w3.org/2000/svg" xmlns:xlink="http://www.w3.org/1999/xlink" viewBox="0 0 100 100">
  <defs>
    <style>
      .cls-1 {
        clip-path: url(#clippath);
      }

      .cls-2 {
        fill: none;
      }

      .cls-3 {
        fill: #5b696f;
      }
    </style>
    <clipPath id="clippath">
      <rect class="cls-2" y="19" width="100" height="62"/>
    </clipPath>
  </defs>
  <g class="cls-1">
    <polygon class="cls-3" points="37.36 50.29 0 24.27 0 76.31 37.36 50.29"/>
    <path class="cls-3" d="M52.69,53.44L98.95,20.08c-.68-.67-1.65-1.08-2.72-1.08H3.76c-1.13,0-2.14,.47-2.83,1.2L48.71,53.47c1.05,.73,2.94,.72,3.97-.03"/>
    <path class="cls-3" d="M55.22,56.39c-1.27,.91-2.91,1.37-4.55,1.37s-3.18-.43-4.43-1.3l-5.48-3.82L1.29,80.13c.66,.54,1.52,.87,2.47,.87H96.23c.88,0,1.7-.3,2.34-.77l-38.21-27.55-5.15,3.72"/>
    <polyline class="cls-3" points="99.98 76.47 99.98 24.11 63.68 50.29 99.98 76.47"/>
  </g>
</svg>